<svg id="Layer_1" data-name="Layer 1" xmlns="http://www.w3.org/2000/svg" viewBox="0 0 1039 160"><defs><style>.cls-1{fill:#666;}.cls-2{fill:#636;}</style></defs><path class="cls-1" d="M99.5,77.72h51.75v8H99.5Z"/><path class="cls-1" d="M80.09,57.09A25.58,25.58,0,0,0,54.18,83c0,15.31,11,25.76,25.62,25.76s25.76-11.19,25.76-25.91A25.63,25.63,0,0,0,80.09,57.09Zm-.29,45.63c-11.19,0-18.7-8.68-18.7-19.87s7.51-19.58,18.55-19.58,19,8.83,19,19.58S90.84,102.72,79.8,102.72Z"/><path class="cls-1" d="M11.81,78.25H59.88v8H11.81Z"/><path class="cls-1" d="M75.77,61.19V13.12h8V61.19Z"/><path class="cls-1" d="M76.3,151.33V103.27h8v48.06Z"/><rect class="cls-2" x="108.3" y="13.12" width="53.79" height="53.79"/><rect class="cls-2" x="108.3" y="98.01" width="53.79" height="53.79"/><rect class="cls-2" x="161.49" y="56.11" width="53.79" height="53.79"/><path class="cls-1" d="M237.49,139.64c5.89-1.2,10.87-2.87,14.49-6.79,4.23-4.38,5.74-10.42,5.74-33.37V60.26c0-20.39-.15-41.92-.6-47,1.81.15,5.89.3,9.36.3,7.4,0,8.91-.15,10.87-.3-.45,5.58-.6,29.23-.6,47.05V97.51c0,27.79-2.57,36.55-9.82,44.25-7.25,7.85-19.91,10-29.57,10.27"/><path class="cls-1" d="M346,121.11c-6,0-7.25.15-9.36.3a58.66,58.66,0,0,1-.76-8,28.11,28.11,0,0,1-21.74,9.51c-11.48,0-22.65-5.58-22.65-26.42V85c0-14.65.15-31.56-.31-35.79,7.1,0,12.54,0,18.88-1-.3,5.58-.45,20.68-.45,36.84v7.7c0,10,3,16,12.83,16a17.17,17.17,0,0,0,13.44-7.1V85.32c0-14.64-.15-32.31-.45-36.39,6.64.46,13.13.61,19.17-.45-.3,5.28-.6,18.87-.6,34.73v7.7c0,14.8.3,27,1.21,30.35C353.57,121.26,349.49,121.11,346,121.11Z"/><path class="cls-1" d="M372.14,88.65V50.59c0-18,0-32-.45-36.54a132.51,132.51,0,0,0,19-.9c-.3,6-.45,16.76-.45,34.42V96.5c0,11.47.3,22,.45,24.91-1.66-.15-5.73-.3-9.51-.3-4.68,0-7.7.15-9.51.3C372,117.94,372.14,104.35,372.14,88.65Z"/><path class="cls-1" d="M426.35,26.89c0,5.58-3.78,9.81-10.12,9.81-6,0-9.81-4.23-9.81-9.81,0-6,3.92-10.12,10-10.12S426.35,20.85,426.35,26.89ZM407.62,88.65V71.13c0-8.31-.15-18.72-.45-21.9,5.44,0,14.5-.45,19-.9-.3,3.77-.46,17.82-.46,21.29V96.5c0,11.47.31,22,.46,24.91-1.66-.15-5.74-.3-9.52-.3-4.68,0-7.7.15-9.51.3C407.47,117.94,407.62,104.35,407.62,88.65Z"/><path class="cls-1" d="M472.86,87.29H456.25C456.7,102.84,467.87,109,480,109a39.11,39.11,0,0,0,19.48-4.53c-.75,4.08-1.36,10.42-1.66,13.74-6.34,3.32-13.59,4.38-23.25,4.38-21.9,0-36.55-13.44-36.55-37.15,0-20.68,13.44-38,35.49-38C494.6,47.42,504,63,504,78.23a56.23,56.23,0,0,1-.6,8C498.38,87,488.71,87.29,472.86,87.29Zm-3.93-11.63c7.25,0,14.65-.15,17.21-.45.31-7.25-3.77-15.71-14.49-15.71-10,0-14.65,8.46-15.4,16.16Z"/><path class="cls-1" d="M544,118.09a91.84,91.84,0,0,0,1.51-17.52A39.84,39.84,0,0,0,570.1,109c12.08,0,17.21-4.83,17.21-12.23,0-5.74-2-10.42-13-16l-8.75-4.53c-13.9-6.94-20.09-15.85-20.09-27.18,0-15.25,10.87-28.69,34.58-28.69A93.19,93.19,0,0,1,602.71,23a88.28,88.28,0,0,0-1.36,16.91c-2.72-2.11-10.57-5.58-21.89-5.58-9.36,0-15.25,4.83-15.25,11.32,0,5.13,1.51,9.06,12.08,14l8.3,4.08c17.67,8.61,22.35,18.12,22.35,29,0,19.78-15.1,30.35-37.6,30.35C558.77,123.07,549.41,121,544,118.09Z"/><path class="cls-1" d="M609.51,48.93c1.36.15,6.49.3,8,.3,5.89,0,11-.15,13.14-.3,3.92,18,10.57,45.15,11.93,52.85,2.71-9.66,11.47-39,14.64-52.85,1.21.15,4.69.3,6,.3,3.78,0,8.91,0,10.88-.45C677.91,65.09,686.37,95,688,102.39c3.32-12.84,11.17-41.53,13.59-53.46,1.06.15,4.83.3,6.34.3,5.29,0,9.36-.15,11.17-.3-6.19,18.27-16.61,51.64-23,72.48a66.1,66.1,0,0,0-7.55-.3c-4.23,0-8.6,0-10.87.3-3.62-15.4-11.17-41.52-13.14-48.92-2.26,8.61-10.87,37-14.49,48.92-1.06-.15-7-.3-7.7-.3-5.14.15-7.71,0-10.57.3-5.44-18.27-16-53.75-22.35-72.48Z"/><path class="cls-1" d="M757,87.29H740.42c.46,15.55,11.63,21.74,23.71,21.74a39.11,39.11,0,0,0,19.48-4.53c-.75,4.08-1.36,10.42-1.66,13.74-6.34,3.32-13.59,4.38-23.25,4.38-21.9,0-36.55-13.44-36.55-37.15,0-20.68,13.44-38,35.49-38,21.14,0,30.5,15.56,30.5,30.81a56.23,56.23,0,0,1-.6,8C782.55,87,772.89,87.29,757,87.29Zm-3.92-11.63c7.25,0,14.64-.15,17.21-.45.3-7.25-3.77-15.71-14.49-15.71-10,0-14.65,8.46-15.41,16.16Z"/><path class="cls-1" d="M839.78,122.17c-.15-.91-.6-6-.6-8.46-5.59,6.19-12.69,9.21-21.9,9.21-14.8,0-22.2-10.57-22.2-21.44,0-17.06,15.56-23.71,43-26.42v-.61c0-6.19-3.47-13.44-15.7-13.44-7.25,0-14.8,2.72-20.54,6.34a131.9,131.9,0,0,0,.3-15.4c7.4-2.41,15.7-4.53,24.16-4.53,22.95,0,29.75,13.59,29.75,29.3v21c0,14.19.6,20.23,1.36,23.4A125.53,125.53,0,0,0,839.78,122.17Zm-1.21-36.24c-17.51,1.51-25.52,5.43-25.52,13.59,0,6.94,5.29,10.27,10.72,10.27,7.25,0,11.93-3.63,13.59-7.1A12.84,12.84,0,0,0,838.57,97Z"/><path class="cls-1" d="M873.6,85V72.49c0-9.06,0-19.18-.45-23.26,5.43,0,14.5-.15,18.72-1v8.91c4.84-4.84,11.78-9.67,22.35-9.67,12.84,0,23.56,7.85,23.56,27.94v10c0,14.5,0,31.71.3,36.09-1.51-.15-6.64-.3-10.57-.3-4.68,0-6.49.15-8.31.3.31-5.58.31-20.23.31-36.39V77.17c0-9.36-3.78-15.86-13.44-15.86-5.74,0-11.63,3.63-14.35,7.1v15c0,14.65.15,34.28.46,38.05-1.82-.15-6.95-.3-9.67-.3a82.81,82.81,0,0,0-9.36.3C873.45,115.83,873.6,100.88,873.6,85Z"/><path class="cls-1" d="M974.71,117.64C966,96.5,953.57,68.71,944.82,48.93c2.26.15,7.24.3,9.06.3,4.22,0,10,0,12.38-.3C969.58,58,978.34,82.61,983,98c.15-.46.45-.91.6-1.51,5.44-13.44,12.38-33.22,16.76-47.57,2,.15,3.48.3,7.86.3,3.17,0,8,0,10.26-.3-5.28,13.29-13.74,34.58-20.38,50.29-11.33,27-19.48,46.11-22.5,53.21-5.74.15-16.46.75-19.78,1.2A308,308,0,0,0,974.71,117.64Z"/></svg>